#!OML:ASF H:\BabyWalks\Project 1\Capture day 1\Session 1\baby.ASF
:FULLY-SPECIFIED
:DEGREES
880
root 42.3975 17.3433 0.510092 -33.4359 77.8409 -39.203
lowerback 19.6956 1.04256 -0.478833
upperback 7.76387 1.67559 -1.16782
thorax -2.61561 1.02704 -1.33311
lowerneck 2.72597 2.97213 4.33623
upperneck -12.3109 4.74791 1.66418
head -4.4934 2.16403 -0.432636
rclavicle 7.95139e-016 1.43125e-014
rhumerus -43.9112 4.23187 -79.8295
rradius 55.6631
rwrist 1.59696
rhand -11.1021 -16.9975
rfingers 7.12502
rthumb 14.9221 -46.44
lclavicle 7.95139e-016 1.43125e-014
lhumerus -38.8102 -6.00895 72.8415
lradius 60.028
lwrist 0.122398
lhand -4.66646 5.71699
lfingers 7.12502
lthumb 21.1138 34.5874
rfemur -0.255977 18.0838 24.6488
rtibia 15.3605
rfoot -19.1008 6.06097
rtoes 2.24135
lfemur -28.1361 2.40806 -7.25348
ltibia 40.4429
lfoot -19.8125 -8.5459
ltoes -7.07707
881
root 42.3977 17.3437 0.510767 -33.2304 77.8663 -38.9942
lowerback 19.7109 1.03263 -0.481071
upperback 7.75017 1.6614 -1.15678
thorax -2.63883 1.01933 -1.31783
lowerneck 2.70855 2.96836 4.3878
upperneck -12.281 4.7289 1.55287
head -4.47478 2.15775 -0.477231
rclavicle 1.43125e-014 2.22639e-014
rhumerus -43.891 4.33379 -80.037
rradius 56.1932
rwrist 1.41502
rhand -11.0325 -16.9354
rfingers 7.12502
rthumb 14.9892 -46.3729
lclavicle 1.43125e-014 2.22639e-014
lhumerus -38.9371 -5.87494 72.9188
lradius 59.387
lwrist -0.0544456
lhand -4.55316 5.80155
lfingers 7.12502
lthumb 21.2227 34.6598
rfemur -0.248491 18.0878 24.5982
rtibia 15.3469
rfoot -19.117 6.03971
rtoes 2.21648
lfemur -28.1097 2.46434 -7.31595
ltibia 40.3926
lfoot -19.8011 -8.60925
ltoes -7.01002
882
root 42.3977 17.3441 0.511917 -33.0422 77.8994 -38.8014
lowerback 19.7224 1.02221 -0.484108
upperback 7.73315 1.64622 -1.1444
thorax -2.6637 1.01099 -1.30041
lowerneck 2.69158 2.96418 4.43948
upperneck -12.2366 4.70793 1.43777
head -4.45096 2.1508 -0.522799
rclavicle -7.95139e-016 2.38542e-014
rhumerus -43.8781 4.44311 -80.2573
rradius 56.7329
rwrist 1.24292
rhand -10.9657 -16.8775
rfingers 7.12502
rthumb 15.0535 -46.3102
lclavicle -7.95139e-016 2.38542e-014
lhumerus -39.0774 -5.7543 72.9955
lradius 58.7739
lwrist -0.23432
lhand -4.42834 5.88867
lfingers 7.12502
lthumb 21.3426 34.7334
rfemur -0.237502 18.0876 24.5481
rtibia 15.3321
rfoot -19.1347 6.01606
rtoes 2.19957
lfemur -28.0837 2.50972 -7.37822
ltibia 40.3408
lfoot -19.7873 -8.67066
ltoes -6.94797
883
root 42.3972 17.3445 0.513567 -32.8886 77.937 -38.642
lowerback 19.7272 1.0117 -0.483245
upperback 7.71638 1.63181 -1.12918
thorax -2.68491 1.00305 -1.28214
lowerneck 2.68045 2.96002 4.48323
upperneck -12.1914 4.68752 1.32902
head -4.42841 2.14409 -0.564978
rclavicle -2.22639e-014 1.43125e-014
rhumerus -43.8669 4.56102 -80.4888
rradius 57.2795
rwrist 1.07925
rhand -10.9071 -16.8265
rfingers 7.12502
rthumb 15.11 -46.255
lclavicle -2.22639e-014 1.43125e-014
lhumerus -39.2236 -5.65072 73.0726
lradius 58.1906
lwrist -0.410798
lhand -4.29523 5.97634
lfingers 7.12502
lthumb 21.4704 34.8065
rfemur -0.224481 18.0862 24.5047
rtibia 15.3166
rfoot -19.1516 5.98602
rtoes 2.18001
lfemur -28.0603 2.54583 -7.43463
ltibia 40.2899
lfoot -19.7711 -8.73108
ltoes -6.88964
884
root 42.3965 17.3448 0.515708 -32.779 77.9773 -38.5248
lowerback 19.7242 1.00092 -0.474844
upperback 7.70215 1.61875 -1.11183
thorax -2.69924 0.995931 -1.2659
lowerneck 2.67094 2.95581 4.52341
upperneck -12.1435 4.66727 1.22376
head -4.40547 2.13746 -0.605348
rclavicle 1.11319e-014 3.02153e-014
rhumerus -43.8532 4.69043 -80.7332
rradius 57.826
rwrist 0.927638
rhand -10.8668 -16.7767
rfingers 7.12502
rthumb 15.1488 -46.2022
lclavicle 1.11319e-014 3.02153e-014
lhumerus -39.3716 -5.5656 73.1488
lradius 57.639
lwrist -0.581233
lhand -4.15714 6.05801
lfingers 7.12502
lthumb 21.6031 34.873
rfemur -0.209569 18.0831 24.4708
rtibia 15.3038
rfoot -19.1701 5.95203
rtoes 2.1636
lfemur -28.0381 2.57235 -7.48213
ltibia 40.24
lfoot -19.7513 -8.79035
ltoes -6.83762
